<svg width="117" height="25" viewBox="0 0 117 25" fill="none" xmlns="http://www.w3.org/2000/svg">
<path fill-rule="evenodd" clip-rule="evenodd" d="M15.2117 6.51993C13.1524 6.37225 11.4056 7.63688 10.4319 7.63688C9.44285 7.63688 7.91822 6.55177 6.30161 6.58007C4.17952 6.61191 2.22227 7.77927 1.12844 9.62581C-1.07653 13.3428 0.565585 18.8488 2.71318 21.8627C3.76329 23.3378 5.0156 24.9969 6.66136 24.9368C8.2461 24.8758 8.84447 23.9401 10.7589 23.9401C12.6724 23.9401 13.2125 24.9368 14.8874 24.9049C16.5915 24.8758 17.6726 23.4033 18.7145 21.9202C19.9212 20.2107 20.4176 18.5561 20.4468 18.4659C20.4085 18.4535 17.1234 17.2269 17.0906 13.5524C17.0614 10.481 19.6735 9.00322 19.7928 8.93159C18.3092 6.81177 16.0186 6.5783 15.2117 6.51993ZM97.5078 18.5172V18.8426C97.5078 22.0502 95.0916 24.92 90.2426 24.92C85.4074 24.92 82.533 21.9724 82.533 16.821V14.6693C82.533 9.57098 85.421 6.53143 90.2554 6.53143C94.7947 6.53143 97.5078 9.3101 97.5078 12.7786V12.9607H93.8675C93.8675 11.2009 92.7126 9.63554 90.2818 9.63554C87.6898 9.63554 86.3864 11.3176 86.3864 14.6693V16.821C86.3864 20.2116 87.677 21.7902 90.3082 21.7902C92.9276 21.7902 93.8675 20.3549 93.8675 18.5172H97.5078ZM31.3077 19.5342H31.3614L34.6256 6.81885H38.48L41.7569 19.5342H41.8107L44.8472 6.81885H48.9028L43.8125 24.6211H39.9573L36.5865 12.4522H36.5191L33.1474 24.6211H29.3204L24.2164 6.81885H28.273L31.3077 19.5342ZM105.351 13.9654H112.845V6.81885H116.66V24.6211H112.845V17.0306H105.351V24.6211H101.551V6.81885H105.351V13.9654ZM80.0748 6.81885V9.89643H74.6093V24.6211H70.8214V9.89643H65.3686V6.81885H80.0748ZM59.5388 6.81885L65.4351 24.6202H61.3649L60.0579 20.1338H54.2591L52.9312 24.6202H49.1305L55.0405 6.81885H59.5388ZM59.2628 17.3958L57.2027 10.3271H57.1626L55.0706 17.3958H59.2628ZM13.8573 4.62475C12.9775 5.60462 11.5923 6.35014 10.2325 6.24844C10.0394 4.85468 10.7498 3.40079 11.5586 2.49167C12.4611 1.46757 13.983 0.700832 15.2417 0.653076C15.4038 2.07336 14.8146 3.50426 13.9402 4.52835L13.8992 4.57699L13.8573 4.62475Z" fill="#D6DAE5"/>
</svg>
