<svg width="117" height="25" viewBox="0 0 117 25" fill="none" xmlns="http://www.w3.org/2000/svg">
<path fill-rule="evenodd" clip-rule="evenodd" d="M82.2629 16.4009C80.5688 15.9764 80.5688 15.9587 80.5688 15.0567C80.5688 14.4491 80.6308 14.1591 82.0261 14.1591C82.9842 14.1591 84.3941 14.3182 85.3012 14.4721C85.4251 14.4898 85.5526 14.4633 85.6546 14.3837C85.7566 14.3129 85.8221 14.198 85.8367 14.0742L86.0954 12.0534C86.1136 11.8235 85.9679 11.6112 85.7311 11.5581C84.6746 11.3229 83.2173 11.169 82.0151 11.169C77.8074 11.169 76.9513 12.7078 76.9513 15.0195C76.9513 17.5603 77.434 18.4155 80.6526 19.176C82.7729 19.6713 82.7729 20.0383 82.7729 20.6485C82.7729 21.4497 82.7 21.7274 81.3157 21.7274C80.1972 21.7274 78.9039 21.5594 77.7673 21.264C77.6398 21.234 77.5123 21.2534 77.403 21.3171C77.2937 21.3861 77.2154 21.494 77.1917 21.6178L76.8438 23.5466C76.8019 23.7676 76.9349 23.9843 77.1534 24.0533C78.3957 24.4424 80.1772 24.7077 81.4851 24.7077C85.5544 24.7077 86.385 23.0451 86.385 20.5689C86.385 17.8274 85.8859 17.3145 82.2574 16.3823L82.2629 16.4V16.4009ZM71.7107 16.4009C70.0167 15.9764 70.0167 15.9587 70.0167 15.0567C70.0167 14.4491 70.0786 14.1591 71.4739 14.1591C72.4302 14.1591 73.8419 14.3182 74.749 14.4721C74.8729 14.4898 75.0004 14.4633 75.1024 14.3837C75.2044 14.3129 75.27 14.198 75.2846 14.0742L75.5432 12.0534C75.5723 11.8235 75.4193 11.6112 75.188 11.5581C74.1497 11.3229 72.6925 11.169 71.4903 11.169C67.2935 11.169 66.4264 12.7078 66.4264 15.0195C66.4264 17.5603 66.9182 18.4155 70.1351 19.176C72.2553 19.6713 72.2553 20.0383 72.2553 20.6485C72.2553 21.4497 72.1825 21.7274 70.7981 21.7274C69.6779 21.7274 68.3846 21.5594 67.2461 21.264C67.1186 21.234 66.9911 21.2534 66.8818 21.3171C66.7725 21.3861 66.6942 21.494 66.6705 21.6178L66.3062 23.5368C66.2698 23.7579 66.3973 23.9755 66.6213 24.0445C67.86 24.4336 69.6414 24.6989 70.9511 24.6989C75.0131 24.6989 75.8511 23.0363 75.8511 20.5601C75.8511 17.8185 75.3447 17.3056 71.7162 16.3735L71.7107 16.3912V16.4009ZM34.3601 7.1098C34.2999 6.92232 34.1233 6.79497 33.9192 6.79497H29.6049C29.4046 6.79497 29.2224 6.92144 29.1623 7.10715L23.7186 23.8561C23.6767 23.9887 23.7004 24.1391 23.7878 24.254C23.8753 24.369 24.0137 24.4371 24.1613 24.4371H27.1304C27.3362 24.4371 27.5165 24.3045 27.5748 24.1187L31.3245 11.7907C31.3245 11.7907 31.4246 11.4812 31.7616 11.4812C32.1077 11.4812 32.1988 11.7996 32.1988 11.7996L33.9384 17.6452H31.6068C31.4064 17.6452 31.2243 17.7805 31.1696 17.9724L30.4957 20.2895C30.4592 20.4221 30.4957 20.5724 30.5685 20.6786C30.6596 20.7909 30.8053 20.8554 30.951 20.8554H34.9311L35.9785 24.1214C36.0368 24.3071 36.2153 24.4345 36.4157 24.4345H39.3848C39.5305 24.4345 39.6726 24.3637 39.76 24.2487C39.8511 24.132 39.8766 23.9834 39.8329 23.8472L34.3837 7.07974L34.3655 7.10804L34.3601 7.1098ZM91.101 11.4379H88.3687C88.1136 11.4379 87.9078 11.6386 87.9078 11.8862V24.0197C87.9078 24.2673 88.1155 24.4725 88.3705 24.4725H91.1028C91.3578 24.4725 91.5645 24.2717 91.5645 24.0215V11.8907C91.5645 11.643 91.3642 11.4458 91.1092 11.4458L91.1001 11.4388L91.101 11.4379ZM52.3568 6.46776H49.6245C49.3695 6.46776 49.1637 6.66851 49.1637 6.91613V24.0197C49.1637 24.2673 49.3713 24.4725 49.6264 24.4725H52.3587C52.6137 24.4725 52.8195 24.2717 52.8195 24.0215V6.92055C52.8195 6.67293 52.6192 6.47572 52.3641 6.47572L52.3568 6.46864V6.46776ZM113.779 11.177C112.336 11.177 110.364 11.6616 108.697 12.4222L108.497 11.7677C108.442 11.5732 108.26 11.4449 108.055 11.4449H106.033C105.778 11.4449 105.569 11.6457 105.569 11.8933V24.0268C105.569 24.2744 105.769 24.4778 106.024 24.4778H108.756C109.011 24.4778 109.221 24.2779 109.221 24.0268V15.6253C110.204 15.1389 111.589 14.6348 112.411 14.6348C113.027 14.6348 113.255 14.8595 113.255 15.4573V24.0179C113.255 24.2691 113.464 24.4689 113.719 24.4689H116.451C116.706 24.4689 116.912 24.2691 116.912 24.0179V15.1097C116.912 12.5053 115.856 11.1832 113.777 11.1832H113.775L113.779 11.177ZM10.507 18.3907C10.4342 18.32 10.3303 18.2448 10.1518 18.2448C9.92412 18.2448 9.79115 18.3969 9.74015 18.4712C8.46507 20.3637 7.80932 22.1502 7.71824 23.9454C7.71551 24.0781 7.76651 24.2107 7.85941 24.308C7.95049 24.4141 8.0871 24.4672 8.22372 24.4672H11.2511C11.5152 24.4672 11.7338 24.2726 11.752 24.025C11.8249 23.1583 12.0981 22.2916 12.6082 21.3896C12.7812 21.0712 12.6446 20.7794 12.5444 20.6529C12.0435 20.0162 11.4305 19.3441 10.5198 18.419L10.5161 18.4013L10.507 18.3907ZM61.2159 19.6819V21.2446C60.7696 21.4922 59.9499 21.8282 58.9572 21.8282C58.1102 21.8282 57.8461 21.5806 57.8461 20.7493C57.8461 19.9534 58.01 19.7022 59.0118 19.7022H61.2159V19.6828V19.6819ZM100.033 19.6819V21.2446C99.5775 21.4922 98.7578 21.8282 97.7742 21.8282C96.9272 21.8282 96.663 21.5806 96.663 20.7493C96.663 19.9534 96.827 19.7022 97.8288 19.7022H100.033V19.6828V19.6819ZM47.3085 21.8795C47.2902 21.7522 47.2174 21.6408 47.1081 21.57C46.9988 21.4993 46.8695 21.478 46.742 21.5081C46.2501 21.6248 45.7948 21.6885 45.4305 21.6885C44.7565 21.6885 44.4468 21.4055 44.4468 20.7688V14.3395H47.0972C47.3522 14.3395 47.5598 14.1361 47.5598 13.8884V11.8809C47.5598 11.6333 47.3504 11.4299 47.0953 11.4299H44.4541V8.34437C44.4541 8.21172 44.3922 8.09056 44.2902 8.00389C44.19 7.91811 44.0534 7.88008 43.9259 7.89777L41.1936 8.2692C40.964 8.29839 40.7928 8.48764 40.7928 8.71138V11.4352H39.3019C39.0469 11.4352 38.8392 11.636 38.8392 11.8836V13.8999C38.8392 14.1476 39.0578 14.3527 39.3128 14.3527H40.7992V21.1888C40.7992 23.5386 42.0688 24.7263 44.5752 24.7263C45.2856 24.7263 46.4988 24.5671 47.2893 24.3018C47.4988 24.2311 47.6281 24.025 47.5935 23.8066L47.2975 21.8875L47.3066 21.8742L47.3085 21.8795ZM59.3843 11.1832C58 11.1832 56.3169 11.3954 55.0946 11.7226C54.8578 11.7845 54.7121 12.0012 54.7485 12.2267L55.0637 14.1546C55.0819 14.2723 55.1547 14.3784 55.2549 14.4491C55.3569 14.5199 55.4844 14.5376 55.6083 14.5199C56.7431 14.3076 57.9162 14.1838 58.9089 14.1838C60.8762 14.1838 61.1931 14.5906 61.1931 15.8818V17.0138H58.2787C55.4844 17.0138 54.2895 18.1281 54.2895 20.7635C54.2895 23.2751 55.601 24.7077 57.8779 24.7077C59.2022 24.7077 60.5246 24.354 61.6358 23.6996L61.7542 24.1117C61.8088 24.3062 61.991 24.4389 62.2004 24.4389H64.4191C64.6741 24.4389 64.8799 24.2355 64.8799 23.9879V15.9225C64.8799 12.4558 63.3954 11.1646 59.3971 11.1646L59.3807 11.1734L59.3843 11.1832ZM98.1949 11.1832C96.8106 11.1832 95.1348 11.3954 93.9143 11.7226C93.6866 11.7845 93.5409 12.0012 93.5819 12.2267L93.9007 14.1546C93.9189 14.2723 93.9917 14.3784 94.0919 14.4491C94.1958 14.5199 94.3233 14.5376 94.4471 14.5199C95.5765 14.3076 96.7423 14.1838 97.7441 14.1838C99.7114 14.1838 100.021 14.5906 100.021 15.8818V17.0138H97.1066C94.3014 17.0138 93.1065 18.1281 93.1065 20.7635C93.1065 23.2751 94.4153 24.7077 96.6949 24.7077C98.0182 24.7077 99.3361 24.354 100.447 23.6996L100.566 24.1117C100.62 24.3062 100.802 24.4389 101.012 24.4389H103.216C103.471 24.4389 103.681 24.2355 103.681 23.9879V15.9225C103.681 12.4558 102.196 11.1646 98.1977 11.1646L98.2022 11.1734L98.1949 11.1832ZM22.7896 6.54912C22.6986 6.48279 22.5938 6.44919 22.4864 6.44919C22.4135 6.44919 22.3589 6.4598 22.3042 6.48102C21.2113 6.88252 20.1184 7.18851 19.1165 7.41314C18.9161 7.4662 18.7376 7.6077 18.6793 7.78457C17.9507 9.73017 16.0745 11.5873 14.1255 13.5152C14.0526 13.586 13.9433 13.6921 13.7612 13.6921C13.579 13.6921 13.4697 13.6037 13.3969 13.5276C11.4296 11.5909 9.57166 9.75139 8.84304 7.8058C8.77018 7.62893 8.60624 7.48743 8.40587 7.43437C7.40403 7.20443 6.29289 6.8949 5.21818 6.49694C5.16353 6.47925 5.09432 6.47041 5.03603 6.47041C4.92673 6.47041 4.82108 6.50578 4.73183 6.57034C4.59339 6.66762 4.52235 6.83565 4.53875 6.99484C4.70268 8.60968 5.36755 10.1874 6.55155 11.8411C7.67179 13.3976 9.11991 14.8391 10.5316 16.2311C13.1182 18.7958 15.5682 21.2189 15.7849 24.0312C15.8031 24.2823 16.0217 24.4787 16.2804 24.4787H19.3223C19.459 24.4787 19.5919 24.4256 19.6867 24.3283C19.7814 24.2311 19.8324 24.1019 19.8233 23.9693C19.7267 22.0918 18.9981 20.2107 17.5955 18.2183C17.3041 17.8026 16.9944 17.3958 16.6638 16.9979C16.5308 16.8387 16.5873 16.6353 16.6893 16.5362L16.999 16.232C18.4079 14.8436 19.8588 13.402 20.979 11.8456C22.163 10.1962 22.8188 8.62649 22.9873 7.01252C23.0055 6.84892 22.929 6.67647 22.7942 6.57653L22.8033 6.56327L22.7896 6.54912ZM13.773 7.99947C14.7266 7.99947 15.2804 7.94022 15.4734 7.94022C15.692 7.94022 15.9288 8.11709 15.9288 8.3824C15.9288 8.45315 15.9106 8.50621 15.8924 8.55927C15.7649 8.88472 15.182 10.0662 14.1073 11.0797C13.9798 11.1929 13.8523 11.2141 13.7612 11.2141C13.6701 11.2141 13.5244 11.1929 13.4024 11.0797C12.3276 10.0662 11.752 8.88649 11.6264 8.55574C11.6081 8.50267 11.5899 8.44961 11.5899 8.37002C11.5899 8.11356 11.814 7.919 12.0489 7.919C12.2439 7.919 12.7958 7.97206 13.7503 7.97206H13.7539L13.7721 7.98975L13.773 7.99947ZM91.0991 6.47218H88.3741C88.1191 6.47218 87.9115 6.66674 87.9115 6.91436V9.24908C87.9115 9.4967 88.1191 9.69833 88.3741 9.69833H91.1064C91.3614 9.69833 91.5682 9.50377 91.5682 9.25615V6.90286C91.5682 6.65524 91.3614 6.45626 91.1064 6.45626L91.0991 6.47749V6.47218ZM27.0794 0.902466C26.9582 0.743281 26.7697 0.654845 26.5693 0.654845C26.4664 0.654845 26.3644 0.67607 26.2779 0.725594C22.5437 2.70657 18.2203 3.75542 13.7685 3.75719C9.31846 3.75719 4.99413 2.70657 1.26362 0.723825C1.17254 0.670763 1.07236 0.653076 0.972175 0.653076C0.771805 0.653076 0.580544 0.741512 0.462144 0.900698C0.285455 1.11294 0.27999 1.50206 0.580544 1.732C2.44762 3.07623 4.50778 4.13746 6.70091 4.86264C8.97783 5.6055 11.3531 5.99462 13.7685 5.99462C16.1857 5.99462 18.5628 5.6055 20.836 4.86264C23.031 4.13746 25.0912 3.07623 26.9619 1.732C27.2624 1.50206 27.2533 1.11294 27.0803 0.88301V0.902466H27.0794Z" fill="#5982E7"/>
</svg>
