<svg width="117" height="29" viewBox="0 0 117 29" fill="none" xmlns="http://www.w3.org/2000/svg">
<path fill-rule="evenodd" clip-rule="evenodd" d="M105.843 17.6368C105.843 15.3331 104.873 12.6667 101.856 8.94974L94.579 0H84.4476L90.2155 6.27897C91.1873 7.32605 92.425 8.26702 92.425 8.26702C91.0224 7.48259 89.2464 7.16864 87.8439 7.16864C84.5032 7.16864 81.1078 7.8496 78.0895 9.47152C74.8563 11.1978 72.6978 14.0764 72.6978 17.8977C72.6978 20.8276 74.0475 23.0783 75.7716 24.8046C79.6515 28.5746 86.7127 28.9399 89.3002 28.9399C93.1272 28.9399 99.111 28.1015 102.505 25.1194C104.501 23.3401 105.847 20.8807 105.847 17.6377L105.843 17.6368ZM117 7.74524H108.215V28.2598H117V7.74524ZM44.7791 28.2598L25.3751 0H14.4887L17.497 3.45343L0.421875 28.2598H10.2309L13.1572 23.6027H31.6585L34.6458 28.258H44.7791V28.2598ZM70.4873 19.6771V7.74524H61.9735V16.9037C61.9735 19.5214 61.8642 20.2519 61.703 20.932C61.111 22.8157 59.0617 23.6523 56.9579 23.6523C54.048 23.6523 52.7 22.553 52.1627 20.8258C51.9987 20.251 51.9468 19.6249 51.8931 18.9952C51.8384 18.316 51.8931 17.5829 51.8931 16.7976V7.74524H43.2699V19.7283C43.2699 22.3991 44.1852 24.3863 45.6944 25.7482C48.281 28.2067 52.6472 28.9407 56.6901 28.9407C61.5955 28.9407 65.3697 28.2598 68.0638 25.6951C69.4664 24.3863 70.4901 22.66 70.4901 19.6771H70.4873ZM97.437 17.8977C97.437 20.0423 95.9816 21.6651 94.1491 22.5548C92.6409 23.3401 90.8612 23.5488 89.2974 23.5488C87.7346 23.5488 85.9021 23.2366 84.393 22.5026C82.5605 21.6138 81.1597 19.8866 81.1597 18.0012C81.1597 15.7523 82.9375 13.9729 85.0396 13.0824C86.3329 12.5058 87.8967 12.2971 89.1353 12.2971C90.3212 12.2971 92.0471 12.4536 93.3932 12.978C95.8195 13.9729 97.437 15.8557 97.437 17.8977ZM28.2386 18.0879H16.5124L22.3559 8.726L28.2395 18.0879H28.2386Z" fill="#D6DAE5"/>
</svg>
