<svg width="117" height="23" viewBox="0 0 117 23" fill="none" xmlns="http://www.w3.org/2000/svg">
<path fill-rule="evenodd" clip-rule="evenodd" d="M115.318 20.0766C116.113 20.0766 116.746 20.7045 116.746 21.4915C116.746 22.2875 116.113 22.9065 115.311 22.9065C114.517 22.9065 113.872 22.2875 113.872 21.4915C113.872 20.7045 114.517 20.0766 115.311 20.0766H115.318ZM23.378 22.7173H19.4435L19.2759 21.7533C17.478 22.7173 15.8751 22.8747 14.8186 22.8747C11.9315 22.8747 10.3959 21.0069 10.3959 18.421C10.3959 15.3718 12.1883 14.2822 15.3942 14.2822H18.6548V13.6243C18.6548 12.0678 18.4726 11.6115 15.9953 11.6115H11.9715L12.3668 7.79101H16.7804C22.194 7.79101 23.3816 9.45361 23.3816 13.6561V22.7173H23.378ZM81.9951 16.7266C81.9951 19.8396 80.6708 22.8588 75.1279 22.8588C69.5795 22.8588 68.2297 19.8396 68.2297 16.7266V13.7198C68.2297 10.6068 69.5777 7.58761 75.1261 7.58761C80.6818 7.58761 82.0115 10.6068 82.0115 13.7215V16.7284L81.9951 16.7266ZM97.1102 16.7266C97.1102 19.8396 95.7841 22.8588 90.243 22.8588C84.6928 22.8588 83.343 19.8396 83.343 16.7266V13.7198C83.343 10.6068 84.691 7.58761 90.2412 7.58761C95.7787 7.58761 97.1084 10.6068 97.1084 13.7215V16.7284L97.1102 16.7266ZM115.311 20.2994C114.673 20.2994 114.145 20.83 114.145 21.4898C114.145 22.1619 114.673 22.689 115.318 22.689C115.965 22.7067 116.484 22.176 116.484 21.5039C116.484 20.8495 115.965 20.3153 115.318 20.3153H115.311V20.2994ZM7.24647 22.6872H2.52868V11.615H0.167969V7.79455H2.52686V5.50405C2.52686 2.3911 3.85658 0.537476 7.64174 0.537476H10.793V4.35792H8.82574C7.35029 4.35792 7.25193 4.88854 7.25193 5.8861L7.23371 7.79632H10.8039L10.385 11.6168H7.23554V22.689L7.24647 22.6872ZM115.04 22.3158H114.781V20.7363C114.927 20.7186 115.054 20.7009 115.255 20.7009C115.504 20.7009 115.666 20.7487 115.765 20.8177C115.863 20.8884 115.91 20.9945 115.91 21.1449C115.91 21.3518 115.772 21.4774 115.601 21.5287V21.5411C115.739 21.5658 115.837 21.6896 115.874 21.9231C115.91 22.1672 115.947 22.2627 115.972 22.3122H115.699C115.663 22.2627 115.621 22.1177 115.59 21.9125C115.553 21.7091 115.444 21.6348 115.24 21.6348H115.058V22.314L115.04 22.3158ZM115.04 21.4403H115.227C115.44 21.4403 115.621 21.3642 115.621 21.1696C115.621 21.0317 115.519 20.8937 115.227 20.8937C115.143 20.8937 115.082 20.899 115.04 20.9061V21.4403ZM15.1155 18.3627C15.1155 19.1975 15.5235 19.6308 16.4197 19.6308C17.3851 19.6308 17.9535 19.3266 18.6566 19.0118V17.3404H16.5509C15.5527 17.3404 15.1155 17.5172 15.1155 18.3609V18.3627ZM60.184 11.401C59.2186 11.401 58.5264 11.7017 57.8233 12.02V19.0596C58.4973 19.1215 58.8834 19.1215 59.5246 19.1215C61.838 19.1215 62.1513 18.0956 62.1513 16.6629V13.2953C62.1513 12.2411 61.787 11.3904 60.184 11.3904V11.401ZM75.1115 11.401C73.5049 11.401 72.9493 12.25 72.9493 13.2935V17.1493C72.9493 18.2106 73.5049 19.0596 75.1115 19.0596C76.7145 19.0596 77.2719 18.2106 77.2719 17.1493V13.2935C77.2719 12.2394 76.7072 11.3886 75.1042 11.3886L75.1115 11.401ZM36.7554 11.8785C34.3072 11.4717 33.6041 11.3833 32.4274 11.3833C30.3108 11.3833 29.6714 11.8308 29.6714 13.5765V16.8663C29.6714 18.6085 30.309 19.0596 32.4274 19.0596C33.6059 19.0596 34.3072 18.9711 36.7554 18.5643V22.2857C34.6114 22.7544 33.2143 22.8765 32.034 22.8765C26.9664 22.8765 24.9518 20.2941 24.9518 16.5621V13.8913C24.9518 10.1523 26.9664 7.56462 32.034 7.56462C33.2143 7.56462 34.6114 7.68843 36.7554 8.15714V11.8785ZM51.5281 16.5657H42.8721V16.8663C42.8721 18.6085 43.5096 19.0596 45.6263 19.0596C47.5298 19.0596 48.6865 18.9711 51.131 18.5643V22.2857C48.7757 22.7544 47.548 22.8765 45.2346 22.8765C40.1708 22.8765 38.1671 20.2941 38.1671 16.5621V13.5022C38.1671 10.2354 39.6607 7.55931 44.8521 7.55931C50.0526 7.55931 51.5372 10.2036 51.5372 13.5022V16.5621L51.5281 16.5657ZM90.2248 11.401C88.6218 11.401 88.0663 12.25 88.0663 13.2988V17.1599C88.0663 18.2212 88.6218 19.0702 90.2248 19.0702C91.8278 19.0702 92.3924 18.2212 92.3924 17.1599V13.297C92.3924 12.2411 91.8278 11.3904 90.2248 11.3904V11.401ZM112.624 22.6854H107.511L103.183 15.6813V22.6854H98.4654V1.6783L103.183 0.917751V14.4396L107.509 7.78924H112.61L107.883 15.041L112.606 22.6819L112.624 22.6854ZM44.8394 11.0119C43.2364 11.0119 42.8721 11.8608 42.8721 12.9221V13.5111H46.8066V12.9168C46.8066 11.8732 46.4423 11.0172 44.8394 11.0172V11.0119ZM66.8727 16.6364C66.8727 20.2446 65.798 22.88 59.3497 22.88C57.0255 22.88 55.6593 22.6784 53.0909 22.2963V1.67476L57.8087 0.914214V8.1253C58.8288 7.75741 60.1494 7.57169 61.3516 7.57169C66.0694 7.57169 66.8527 9.62341 66.8527 12.9185V16.6506L66.8727 16.6364Z" fill="#D6DAE5"/>
</svg>
