<svg width="37" height="38" viewBox="0 0 37 38" fill="none" xmlns="http://www.w3.org/2000/svg">
<path d="M2 19.25C2 9.72309 9.66831 2 19.1277 2C20.8711 2 22.5537 2.26235 24.1387 2.75" stroke="#5F82FF" stroke-width="4" stroke-linecap="round" stroke-linejoin="round"/>
<path fill-rule="evenodd" clip-rule="evenodd" d="M15.4408 22.9623C17.4766 25.0126 20.7771 25.0126 22.8128 22.9623C24.8485 20.912 33.2757 6.50002 32.531 5.75002C31.7863 5.00002 17.4766 13.4874 15.4408 15.5377C13.4051 17.5879 13.4051 20.912 15.4408 22.9623ZM19.1268 20.75C19.9494 20.75 20.6162 20.0785 20.6162 19.25C20.6162 18.4216 19.9494 17.75 19.1268 17.75C18.3043 17.75 17.6375 18.4216 17.6375 19.25C17.6375 20.0785 18.3043 20.75 19.1268 20.75Z" fill="#5F82FF"/>
<ellipse cx="4.23546" cy="28.25" rx="1.48936" ry="1.5" fill="#5F82FF"/>
<ellipse cx="10.1925" cy="34.25" rx="1.48936" ry="1.5" fill="#5F82FF"/>
<ellipse cx="19.1261" cy="36.5" rx="1.48936" ry="1.5" fill="#5F82FF"/>
<ellipse cx="28.0636" cy="34.25" rx="1.48936" ry="1.5" fill="#5F82FF"/>
<ellipse cx="33.2784" cy="28.25" rx="1.48936" ry="1.5" fill="#5F82FF"/>
<ellipse cx="35.5089" cy="19.25" rx="1.48936" ry="1.5" fill="#5F82FF"/>
</svg>
